<svg viewBox="-0.5 -0.5 24 24" fill="none" xmlns="http://www.w3.org/2000/svg" id="Clipboard-List--Streamline-Solar-Ar"><desc>Clipboard List Streamline Icon: https://streamlinehq.com</desc><path d="M15.333333333333334 3.8352020833333333c2.084375 0.011605416666666667 3.2131958333333333 0.10403666666666668 3.9495791666666666 0.8404008333333334C20.125 5.51767125 20.125 6.872965416666666 20.125 9.583525v5.75c0 2.71055 0 4.065920833333333 -0.8420875000000001 4.9079125 -0.8420875000000001 0.8420875000000001 -2.1973625 0.8420875000000001 -4.9079125 0.8420875000000001H8.625c-2.7105787500000003 0 -4.065863333333334 0 -4.907931666666666 -0.8420875000000001C2.875 19.39944583333333 2.875 18.044075000000003 2.875 15.333525v-5.75c0 -2.710559583333333 0 -4.0658537500000005 0.8420683333333334 -4.907922083333334C4.4534325 3.93923875 5.582262916666667 3.8468074999999997 7.666666666666667 3.8352020833333333" stroke="#ba9b53" stroke-width="1"></path><path d="m10.0625 13.416666666666668 6.229166666666667 0" stroke="#ba9b53" stroke-linecap="round" stroke-width="1"></path><path d="M6.708333333333334 13.416666666666668h0.4791666666666667" stroke="#ba9b53" stroke-linecap="round" stroke-width="1"></path><path d="M6.708333333333334 10.0625h0.4791666666666667" stroke="#ba9b53" stroke-linecap="round" stroke-width="1"></path><path d="M6.708333333333334 16.770833333333336h0.4791666666666667" stroke="#ba9b53" stroke-linecap="round" stroke-width="1"></path><path d="M10.0625 10.0625H16.291666666666668" stroke="#ba9b53" stroke-linecap="round" stroke-width="1"></path><path d="M10.0625 16.770833333333336H16.291666666666668" stroke="#ba9b53" stroke-linecap="round" stroke-width="1"></path><path d="M7.666666666666667 3.354166666666667C7.666666666666667 2.5602545833333332 8.310254583333332 1.9166666666666667 9.104166666666668 1.9166666666666667h4.791666666666667c0.7938833333333334 0 1.4375 0.6435879166666667 1.4375 1.4375v0.9583333333333334c0 0.7939120833333334 -0.6436166666666666 1.4375 -1.4375 1.4375h-4.791666666666667C8.310254583333332 5.75 7.666666666666667 5.106412083333334 7.666666666666667 4.3125v-0.9583333333333334Z" stroke="#ba9b53" stroke-width="1"></path></svg>