<?xml version="1.0" encoding="UTF-8" standalone="no"?>
<!-- Uploaded to: SVG Repo, www.svgrepo.com, Transformed by: SVG Repo Mixer Tools -->

<svg
   width="800"
   height="800"
   viewBox="0 0 24 24"
   fill="none"
   version="1.1"
   id="svg1"
   xml:space="preserve"
   xmlns="http://www.w3.org/2000/svg"
   xmlns:svg="http://www.w3.org/2000/svg"><defs
     id="defs1" /><g
     id="g1"><g
       id="SVGRepo_iconCarrier"><path
         fill-rule="evenodd"
         clip-rule="evenodd"
         d="M 10.2195,1.64611 C 10.7841,1.38221 11.3919,1.25 12,1.25 c 0.6081,0 1.2159,0.13221 1.7805,0.39611 2.1751,1.01667 3.9139,2.92077 5.1039,5.11203 1.1916,2.19395 1.8656,4.73346 1.8656,7.09856 0,4.899 -3.905,8.8933 -8.75,8.8933 -4.84499,0 -8.75,-3.9943 -8.75,-8.8933 0,-2.3651 0.67403,-4.90461 1.86556,-7.09856 C 6.30562,4.56688 8.04437,2.66278 10.2195,1.64611 Z M 11.25,2.85638 C 11.1157,2.89525 10.9835,2.94478 10.8546,3.005 9.04602,3.85036 7.51624,5.48075 6.4337,7.47402 5.35263,9.46459 4.75,11.7596 4.75,13.8567 c 0,3.836 2.85821,6.9718 6.5,7.3541 z m 1.5,0 V 7.18934 L 15.378,4.56137 C 14.6988,3.91209 13.9496,3.38092 13.1454,3.005 13.0165,2.94478 12.8843,2.89525 12.75,2.85638 Z M 16.3862,5.67443 12.75,9.31066 V 12.6893 L 17.7044,7.73496 C 17.6593,7.64743 17.6132,7.56044 17.5663,7.47402 17.2175,6.83177 16.8223,6.2272 16.3862,5.67443 Z M 18.3577,9.20294 12.75,14.8107 v 2.8786 l 6.2196,-6.2196 0.0479,0.0479 C 18.8669,10.7404 18.6451,9.96116 18.3577,9.20294 Z m 0.8796,4.12046 -6.4873,6.4873 v 1.4001 c 3.6418,-0.3823 6.5,-3.5181 6.5,-7.3541 0,-0.1765 -0.0043,-0.3543 -0.0127,-0.5333 z"
         fill="#ba9b53"
         id="path1" /></g><g
       id="SVGRepo_iconCarrier-5"
       transform="matrix(-1,0,0,1,24.08,-0.11)"><path
         fill-rule="evenodd"
         clip-rule="evenodd"
         d="M 10.2195,1.64611 C 10.7841,1.38221 11.3919,1.25 12,1.25 c 0.6081,0 1.2159,0.13221 1.7805,0.39611 2.1751,1.01667 3.9139,2.92077 5.1039,5.11203 1.1916,2.19395 1.8656,4.73346 1.8656,7.09856 0,4.899 -3.905,8.8933 -8.75,8.8933 -4.84499,0 -8.75,-3.9943 -8.75,-8.8933 0,-2.3651 0.67403,-4.90461 1.86556,-7.09856 C 6.30562,4.56688 8.04437,2.66278 10.2195,1.64611 Z M 11.25,2.85638 C 11.1157,2.89525 10.9835,2.94478 10.8546,3.005 9.04602,3.85036 7.51624,5.48075 6.4337,7.47402 5.35263,9.46459 4.75,11.7596 4.75,13.8567 c 0,3.836 2.85821,6.9718 6.5,7.3541 z m 1.5,0 V 7.18934 L 15.378,4.56137 C 14.6988,3.91209 13.9496,3.38092 13.1454,3.005 13.0165,2.94478 12.8843,2.89525 12.75,2.85638 Z M 16.3862,5.67443 12.75,9.31066 V 12.6893 L 17.7044,7.73496 C 17.6593,7.64743 17.6132,7.56044 17.5663,7.47402 17.2175,6.83177 16.8223,6.2272 16.3862,5.67443 Z M 18.3577,9.20294 12.75,14.8107 v 2.8786 l 6.2196,-6.2196 0.0479,0.0479 C 18.8669,10.7404 18.6451,9.96116 18.3577,9.20294 Z m 0.8796,4.12046 -6.4873,6.4873 v 1.4001 c 3.6418,-0.3823 6.5,-3.5181 6.5,-7.3541 0,-0.1765 -0.0043,-0.3543 -0.0127,-0.5333 z"
         fill="#ba9b53"
         id="path1-1" /></g></g></svg>
